<?xml version="1.0" encoding="UTF-8" standalone="no" ?>
<!DOCTYPE svg PUBLIC "-//W3C//DTD SVG 1.1//EN" "http://www.w3.org/Graphics/SVG/1.1/DTD/svg11.dtd">
<svg xmlns="http://www.w3.org/2000/svg" xmlns:xlink="http://www.w3.org/1999/xlink" version="1.1" width="24" height="24" viewBox="0 0 24 24" xml:space="preserve">
<desc>Created with Fabric.js 5.2.4</desc>
<defs>
</defs>
<rect x="0" y="0" width="100%" height="100%" fill="transparent"></rect>
<g transform="matrix(1 0 0 1 12 12)" id="da71cbd2-44a3-46db-a859-d4a4bf41cd15"  >
<rect style="stroke: none; stroke-width: 1; stroke-dasharray: none; stroke-linecap: butt; stroke-dashoffset: 0; stroke-linejoin: miter; stroke-miterlimit: 4; fill: rgb(255,255,255); fill-rule: nonzero; opacity: 1; visibility: hidden;" vector-effect="non-scaling-stroke"  x="-12" y="-12" rx="0" ry="0" width="24" height="24" />
</g>
<g transform="matrix(Infinity NaN NaN Infinity 0 0)" id="f54a1551-e71e-4b4a-8a68-1f8f6a57ffd6"  >
</g>
<g transform="matrix(1 0 0 1 12 12)" id="d9f26a83-6909-4340-a53d-822d6ac442c4"  >
<path style="stroke: rgb(0,0,0); stroke-width: 0; stroke-dasharray: none; stroke-linecap: butt; stroke-dashoffset: 0; stroke-linejoin: miter; stroke-miterlimit: 4; fill: rgb(255,255,255); fill-rule: nonzero; opacity: 1;" vector-effect="non-scaling-stroke"  transform=" translate(-12, -12)" d="M 12 15.5 C 10.067003375592222 15.5 8.5 13.932996624407778 8.5 12 C 8.5 10.067003375592222 10.067003375592222 8.5 12 8.5 C 13.932996624407778 8.5 15.5 10.067003375592222 15.5 12 C 15.5 13.932996624407778 13.932996624407778 15.5 12 15.5 M 19.43 12.97 C 19.47 12.65 19.5 12.33 19.5 12 C 19.5 11.67 19.47 11.34 19.43 11 L 21.54 9.37 C 21.73 9.22 21.78 8.95 21.66 8.73 L 19.66 5.27 C 19.54 5.05 19.27 4.96 19.05 5.05 L 16.56 6.05 C 16.04 5.66 15.5 5.32 14.87 5.07 L 14.5 2.42 C 14.46 2.18 14.25 2 14 2 L 10 2 C 9.75 2 9.54 2.18 9.5 2.42 L 9.13 5.07 C 8.5 5.32 7.96 5.66 7.44 6.05 L 4.95 5.05 C 4.73 4.96 4.46 5.05 4.34 5.27 L 2.34 8.73 C 2.21 8.95 2.27 9.22 2.46 9.37 L 4.57 11 C 4.53 11.34 4.5 11.67 4.5 12 C 4.5 12.33 4.53 12.65 4.57 12.97 L 2.46 14.63 C 2.27 14.78 2.21 15.05 2.34 15.27 L 4.34 18.73 C 4.46 18.95 4.73 19.03 4.95 18.95 L 7.44 17.94 C 7.96 18.34 8.5 18.68 9.13 18.93 L 9.5 21.58 C 9.54 21.82 9.75 22 10 22 L 14 22 C 14.25 22 14.46 21.82 14.5 21.58 L 14.87 18.93 C 15.5 18.67 16.04 18.34 16.56 17.94 L 19.05 18.95 C 19.27 19.03 19.54 18.95 19.66 18.73 L 21.66 15.27 C 21.78 15.05 21.73 14.78 21.54 14.63 L 19.43 12.97 Z" stroke-linecap="round" />
</g>
</svg>