<?xml version="1.0" encoding="UTF-8" standalone="no" ?>
<!DOCTYPE svg PUBLIC "-//W3C//DTD SVG 1.1//EN" "http://www.w3.org/Graphics/SVG/1.1/DTD/svg11.dtd">
<svg xmlns="http://www.w3.org/2000/svg" xmlns:xlink="http://www.w3.org/1999/xlink" version="1.1" width="24" height="24" viewBox="0 0 24 24" xml:space="preserve">
<desc>Created with Fabric.js 5.2.4</desc>
<defs>
</defs>
<rect x="0" y="0" width="100%" height="100%" fill="transparent"></rect>
<g transform="matrix(1 0 0 1 12 12)" id="da71cbd2-44a3-46db-a859-d4a4bf41cd15"  >
<rect style="stroke: none; stroke-width: 1; stroke-dasharray: none; stroke-linecap: butt; stroke-dashoffset: 0; stroke-linejoin: miter; stroke-miterlimit: 4; fill: rgb(255,255,255); fill-rule: nonzero; opacity: 1; visibility: hidden;" vector-effect="non-scaling-stroke"  x="-12" y="-12" rx="0" ry="0" width="24" height="24" />
</g>
<g transform="matrix(Infinity NaN NaN Infinity 0 0)" id="f54a1551-e71e-4b4a-8a68-1f8f6a57ffd6"  >
</g>
<g transform="matrix(1 0 0 1 12 12)" id="49233081-116c-4f8a-b864-20d5bb767e44"  >
<path style="stroke: rgb(0,0,0); stroke-width: 0; stroke-dasharray: none; stroke-linecap: butt; stroke-dashoffset: 0; stroke-linejoin: miter; stroke-miterlimit: 4; fill: rgb(255,255,255); fill-rule: nonzero; opacity: 1;" vector-effect="non-scaling-stroke"  transform=" translate(-12, -12.75)" d="M 12 5.5 C 13.932996624407778 5.5 15.5 7.067003375592222 15.5 9 C 15.5 10.932996624407778 13.932996624407778 12.5 12 12.5 C 10.067003375592222 12.5 8.5 10.932996624407778 8.5 9 C 8.5 7.067003375592223 10.067003375592222 5.5 12 5.5 M 5 8 C 5.56 8 6.08 8.15 6.53 8.42 C 6.38 9.85 6.8 11.27 7.66 12.38 C 7.16 13.34 6.16 14 5 14 C 3.3431457505076194 14 2 12.65685424949238 2 11 C 2 9.34314575050762 3.3431457505076194 8 5 8 M 19 8 C 20.65685424949238 8 22 9.343145750507619 22 11 C 22 12.65685424949238 20.65685424949238 14 19 14 C 17.84 14 16.84 13.34 16.34 12.38 C 17.2 11.27 17.62 9.85 17.47 8.42 C 17.92 8.15 18.44 8 19 8 M 5.5 18.25 C 5.5 16.18 8.41 14.5 12 14.5 C 15.59 14.5 18.5 16.18 18.5 18.25 L 18.5 20 L 5.5 20 L 5.5 18.25 M 0 20 L 0 18.5 C 0 17.11 1.89 15.94 4.45 15.6 C 3.86 16.28 3.5 17.22 3.5 18.25 L 3.5 20 L 0 20 M 24 20 L 20.5 20 L 20.5 18.25 C 20.5 17.22 20.14 16.28 19.55 15.6 C 22.11 15.94 24 17.11 24 18.5 L 24 20 Z" stroke-linecap="round" />
</g>
</svg>