<?xml version="1.0" encoding="UTF-8" standalone="no" ?>
<!DOCTYPE svg PUBLIC "-//W3C//DTD SVG 1.1//EN" "http://www.w3.org/Graphics/SVG/1.1/DTD/svg11.dtd">
<svg xmlns="http://www.w3.org/2000/svg" xmlns:xlink="http://www.w3.org/1999/xlink" version="1.1" width="24" height="24" viewBox="0 0 24 24" xml:space="preserve">
<desc>Created with Fabric.js 5.2.4</desc>
<defs>
</defs>
<rect x="0" y="0" width="100%" height="100%" fill="transparent"></rect>
<g transform="matrix(1 0 0 1 12 12)" id="da71cbd2-44a3-46db-a859-d4a4bf41cd15"  >
<rect style="stroke: none; stroke-width: 1; stroke-dasharray: none; stroke-linecap: butt; stroke-dashoffset: 0; stroke-linejoin: miter; stroke-miterlimit: 4; fill: rgb(255,255,255); fill-rule: nonzero; opacity: 1; visibility: hidden;" vector-effect="non-scaling-stroke"  x="-12" y="-12" rx="0" ry="0" width="24" height="24" />
</g>
<g transform="matrix(Infinity NaN NaN Infinity 0 0)" id="f54a1551-e71e-4b4a-8a68-1f8f6a57ffd6"  >
</g>
<g transform="matrix(1 0 0 1 12 12)" id="0934f7fe-1317-475b-9fa7-769daaf488a9"  >
<path style="stroke: rgb(0,0,0); stroke-width: 0; stroke-dasharray: none; stroke-linecap: butt; stroke-dashoffset: 0; stroke-linejoin: miter; stroke-miterlimit: 4; fill: rgb(255,255,255); fill-rule: nonzero; opacity: 1;" vector-effect="non-scaling-stroke"  transform=" translate(-12, -12)" d="M 15 7 L 20.5 7 L 15 1.5 L 15 7 M 8 0 L 16 0 L 22 6 L 22 18 C 22 19.104569499661586 21.104569499661586 20 20 20 L 8 20 C 6.89 20 6 19.1 6 18 L 6 2 C 6 0.8954305003384131 6.8954305003384135 0 8 0 M 4 4 L 4 22 L 20 22 L 20 24 L 4 24 C 2.895430500338413 24 2 23.104569499661586 2 22 L 2 4 L 4 4 Z" stroke-linecap="round" />
</g>
</svg>