<?xml version="1.0" encoding="UTF-8" standalone="no" ?>
<!DOCTYPE svg PUBLIC "-//W3C//DTD SVG 1.1//EN" "http://www.w3.org/Graphics/SVG/1.1/DTD/svg11.dtd">
<svg xmlns="http://www.w3.org/2000/svg" xmlns:xlink="http://www.w3.org/1999/xlink" version="1.1" width="24" height="24" viewBox="0 0 24 24" xml:space="preserve">
<desc>Created with Fabric.js 5.2.4</desc>
<defs>
</defs>
<rect x="0" y="0" width="100%" height="100%" fill="transparent"></rect>
<g transform="matrix(1 0 0 1 12 12)" id="da71cbd2-44a3-46db-a859-d4a4bf41cd15"  >
<rect style="stroke: none; stroke-width: 1; stroke-dasharray: none; stroke-linecap: butt; stroke-dashoffset: 0; stroke-linejoin: miter; stroke-miterlimit: 4; fill: rgb(255,255,255); fill-rule: nonzero; opacity: 1; visibility: hidden;" vector-effect="non-scaling-stroke"  x="-12" y="-12" rx="0" ry="0" width="24" height="24" />
</g>
<g transform="matrix(Infinity NaN NaN Infinity 0 0)" id="f54a1551-e71e-4b4a-8a68-1f8f6a57ffd6"  >
</g>
<g transform="matrix(1 0 0 1 12 12)" id="34dcd45d-336f-4c52-adbf-c1f02d6b3f7a"  >
<path style="stroke: rgb(0,0,0); stroke-width: 0; stroke-dasharray: none; stroke-linecap: butt; stroke-dashoffset: 0; stroke-linejoin: miter; stroke-miterlimit: 4; fill: rgb(255,255,255); fill-rule: nonzero; opacity: 1;" vector-effect="non-scaling-stroke"  transform=" translate(-12, -12)" d="M 10 17 L 6 13 L 7.41 11.59 L 10 14.17 L 16.59 7.58 L 18 9 M 12 1 L 3 5 L 3 11 C 3 16.55 6.84 21.74 12 23 C 17.16 21.74 21 16.55 21 11 L 21 5 L 12 1 Z" stroke-linecap="round" />
</g>
</svg>